<?xml version="1.0" encoding="UTF-8" standalone="no"?>
<!-- Created with Inkscape (http://www.inkscape.org/) -->

<svg
   xmlns:dc="http://purl.org/dc/elements/1.1/"
   xmlns:cc="http://creativecommons.org/ns#"
   xmlns:rdf="http://www.w3.org/1999/02/22-rdf-syntax-ns#"
   xmlns:svg="http://www.w3.org/2000/svg"
   xmlns="http://www.w3.org/2000/svg"
   xmlns:sodipodi="http://sodipodi.sourceforge.net/DTD/sodipodi-0.dtd"
   xmlns:inkscape="http://www.inkscape.org/namespaces/inkscape"
   width="48"
   height="48"
   id="svg2"
   version="1.1"
   inkscape:version="0.48.0 r9654"
   sodipodi:docname="bug.svg">
  <defs
     id="defs4" />
  <sodipodi:namedview
     id="base"
     pagecolor="#ffffff"
     bordercolor="#666666"
     borderopacity="1.0"
     inkscape:pageopacity="0.0"
     inkscape:pageshadow="2"
     inkscape:zoom="7.9195959"
     inkscape:cx="7.9620371"
     inkscape:cy="19.882843"
     inkscape:document-units="px"
     inkscape:current-layer="layer1"
     showgrid="false"
     inkscape:window-width="1366"
     inkscape:window-height="691"
     inkscape:window-x="0"
     inkscape:window-y="25"
     inkscape:window-maximized="1" />
  <metadata
     id="metadata7">
    <rdf:RDF>
      <cc:Work
         rdf:about="">
        <dc:format>image/svg+xml</dc:format>
        <dc:type
           rdf:resource="http://purl.org/dc/dcmitype/StillImage" />
        <dc:title />
      </cc:Work>
    </rdf:RDF>
  </metadata>
  <g
     inkscape:label="Ebene 1"
     inkscape:groupmode="layer"
     id="layer1"
     transform="translate(0,-1004.3622)">
    <g
       id="g3792"
       transform="matrix(1.1347182,0.54021512,-0.54021512,1.1347182,554.42205,-153.09707)" />
    <g
       id="g3004"
       transform="matrix(0.96675991,0.34774797,-0.34774797,0.96675991,357.87627,24.048817)">
      <path
         sodipodi:type="arc"
         style="fill:none;stroke:#000000;stroke-width:1.5;stroke-miterlimit:4;stroke-opacity:1;stroke-dasharray:none;stroke-dashoffset:0"
         id="path3004"
         sodipodi:cx="27.337254"
         sodipodi:cy="26.155451"
         sodipodi:rx="7.6392784"
         sodipodi:ry="11.743023"
         d="m 34.976532,26.155451 c 0,6.485492 -3.420221,11.743023 -7.639278,11.743023 -4.219057,0 -7.639279,-5.257531 -7.639279,-11.743023 0,-6.485493 3.420222,-11.743023 7.639279,-11.743023 4.219057,0 7.639278,5.25753 7.639278,11.743023 z"
         transform="matrix(1.1347182,0.54021512,-0.54021512,1.1347182,7.2452409,987.01484)" />
      <path
         style="fill:none;stroke:#000000;stroke-width:1px;stroke-linecap:butt;stroke-linejoin:miter;stroke-opacity:1"
         d="m 18.814091,1023.8254 -5.555839,-5.0508 5.050763,-6.8185"
         id="path3774"
         inkscape:connector-curvature="0"
         transform="matrix(1.1347182,0.54021512,-0.54021512,1.1347182,554.42205,-153.0971)" />
      <path
         style="fill:none;stroke:#000000;stroke-width:1px;stroke-linecap:butt;stroke-linejoin:miter;stroke-opacity:1"
         d="m 16.288709,1028.8762 -6.944798,-3.6618"
         id="path3776"
         inkscape:connector-curvature="0"
         transform="matrix(1.1347182,0.54021512,-0.54021512,1.1347182,554.42205,-153.0971)" />
      <path
         style="fill:none;stroke:#000000;stroke-width:1px;stroke-linecap:butt;stroke-linejoin:miter;stroke-opacity:1"
         d="m 16.414978,1035.5684 -7.197336,-0.1263"
         id="path3778"
         inkscape:connector-curvature="0"
         transform="matrix(1.1347182,0.54021512,-0.54021512,1.1347182,554.42205,-153.0971)" />
      <path
         style="fill:none;stroke:#000000;stroke-width:1px;stroke-linecap:butt;stroke-linejoin:miter;stroke-opacity:1"
         d="m 18.687822,1040.8717 -5.934647,4.0406"
         id="path3780"
         inkscape:connector-curvature="0"
         transform="matrix(1.1347182,0.54021512,-0.54021512,1.1347182,554.42205,-153.0971)" />
      <path
         inkscape:connector-curvature="0"
         id="path3782"
         d="m 29.67323,1023.9516 5.555839,-5.0507 -5.050763,-6.8186"
         style="fill:none;stroke:#000000;stroke-width:1px;stroke-linecap:butt;stroke-linejoin:miter;stroke-opacity:1"
         transform="matrix(1.1347182,0.54021512,-0.54021512,1.1347182,554.42205,-153.0971)" />
      <path
         inkscape:connector-curvature="0"
         id="path3784"
         d="m 32.198612,1029.0024 6.944799,-3.6618"
         style="fill:none;stroke:#000000;stroke-width:1px;stroke-linecap:butt;stroke-linejoin:miter;stroke-opacity:1"
         transform="matrix(1.1347182,0.54021512,-0.54021512,1.1347182,554.42205,-153.0971)" />
      <path
         inkscape:connector-curvature="0"
         id="path3786"
         d="m 32.072343,1035.6947 7.197337,-0.1263"
         style="fill:none;stroke:#000000;stroke-width:1px;stroke-linecap:butt;stroke-linejoin:miter;stroke-opacity:1"
         transform="matrix(1.1347182,0.54021512,-0.54021512,1.1347182,554.42205,-153.0971)" />
      <path
         inkscape:connector-curvature="0"
         id="path3788"
         d="m 29.799499,1040.998 5.934647,4.0406"
         style="fill:none;stroke:#000000;stroke-width:1px;stroke-linecap:butt;stroke-linejoin:miter;stroke-opacity:1"
         transform="matrix(1.1347182,0.54021512,-0.54021512,1.1347182,554.42205,-153.0971)" />
      <path
         style="fill:none;stroke:#000000;stroke-width:1px;stroke-linecap:butt;stroke-linejoin:miter;stroke-opacity:1"
         d="m 17.803938,1026.3508 6.060916,2.7779 6.187184,-2.3991"
         id="path3790"
         inkscape:connector-curvature="0"
         transform="matrix(1.1347182,0.54021512,-0.54021512,1.1347182,554.42205,-153.0971)" />
      <path
         inkscape:connector-curvature="0"
         id="path3808"
         d="m 19.531887,1044.2793 c -2.26199,-0.475 -3.95211,-2.3363 -4.756868,-5.2384 -0.375166,-1.353 -0.375816,-4.8026 -0.0012,-6.4805 0.779848,-3.4931 2.595862,-7.1454 4.679682,-9.4117 l 0.758492,-0.8249 2.404143,2.8715 c 1.322279,1.5794 2.469962,2.9123 2.550408,2.962 0.08044,0.05 2.023464,0.2347 4.317822,0.411 2.294356,0.1765 4.189357,0.3385 4.21111,0.3602 0.105718,0.1056 -0.466662,2.5732 -0.895478,3.8604 -2.065431,6.1998 -7.064803,11.1512 -11.658202,11.5466 -0.523672,0.045 -1.248121,0.02 -1.609887,-0.057 z"
         style="fill:#800000;fill-opacity:1;stroke:#000000;stroke-width:0.23803277;stroke-miterlimit:4;stroke-opacity:1;stroke-dasharray:none;stroke-dashoffset:0" />
    </g>
  </g>
</svg>
